<?xml version="1.0" standalone="no"?><!DOCTYPE svg PUBLIC "-//W3C//DTD SVG 1.1//EN" "http://www.w3.org/Graphics/SVG/1.1/DTD/svg11.dtd"><svg t="1742196072911" class="icon" viewBox="0 0 1024 1024" version="1.1" xmlns="http://www.w3.org/2000/svg" p-id="18718" xmlns:xlink="http://www.w3.org/1999/xlink" width="200" height="200"><path d="M171 562.9v391.4h680.4V562.9c0-187.9-152.3-340.2-340.2-340.2C323.3 222.7 171 375 171 562.9z m623.4 335.5H228V561.8c0-156.4 126.8-283.2 283.2-283.2 156.4 0 283.2 126.8 283.2 283.2v336.6zM294.1 265.6l-3.9 3.3c-10.8 9.1-26.9 7.6-35.9-3.1L196 196.2c-9.1-10.8-7.6-26.9 3.1-35.9l3.9-3.3c10.8-9.1 26.9-7.6 35.9 3.1l58.4 69.5c9 10.9 7.6 26.9-3.2 36z m217.2-52.1h-5.1c-14.1 0-25.5-11.4-25.5-25.5V97.2c0-14.1 11.4-25.5 25.5-25.5h5.1c14.1 0 25.5 11.4 25.5 25.5V188c0 14-11.4 25.5-25.5 25.5z m211.3 54.6l-3.6-3.6c-10-10-10-26.1 0-36.1l64.2-64.2c10-10 26.1-10 36.1 0l3.6 3.6c10 10 10 26.1 0 36.1l-64.2 64.2c-10 10-26.1 10-36.1 0z" p-id="18719"></path><path d="M488.9 769.5l-0.2 0.2L522 632.1l-119.2-44.2 142.3-131.4 0.3-0.1-84.3 111.2 110.3 43.7z" p-id="18720"></path></svg>