<svg version="1.2" xmlns="http://www.w3.org/2000/svg" viewBox="0 0 64 80" width="64" height="80">
	<title>noun-technology-3508079</title>
	<style>
		tspan { white-space:pre } 
		.s0 { fill: #000000 } 
		.t1 { font-size: 5px;fill: #000000;font-family: "' Helvetica  Neue'" } 
	</style>
	<path class="s0" d="m44 41v-2h-1.2q-0.2 0-0.3-0.1-0.2 0-0.3-0.1-0.2-0.1-0.3-0.3 0-0.1-0.1-0.3-0.1-0.5-0.2-1-0.2-0.5-0.4-1-0.2-0.5-0.4-1-0.3-0.4-0.6-0.9-0.1-0.1-0.1-0.3-0.1-0.1 0-0.3 0-0.2 0.1-0.4 0-0.1 0.2-0.2l0.8-0.9-1.4-1.4-0.9 0.8q-0.1 0.2-0.2 0.2-0.2 0.1-0.4 0.1-0.2 0.1-0.3 0-0.2 0-0.3-0.1-0.5-0.3-0.9-0.6-0.5-0.2-1-0.4-0.5-0.2-1-0.4-0.5-0.1-1-0.2-0.2-0.1-0.3-0.1-0.2-0.1-0.3-0.3-0.1-0.1-0.1-0.3-0.1-0.1-0.1-0.3v-1.2h-2v1.2q0 0.2-0.1 0.3 0 0.2-0.1 0.3-0.1 0.2-0.3 0.3-0.1 0-0.3 0.1-0.5 0.1-1 0.2-0.5 0.2-1 0.4-0.5 0.2-1 0.4-0.4 0.3-0.9 0.6-0.1 0.1-0.3 0.1-0.1 0.1-0.3 0-0.2 0-0.4-0.1-0.1 0-0.2-0.2l-0.9-0.8-1.4 1.4 0.8 0.9q0.2 0.1 0.2 0.2 0.1 0.2 0.1 0.4 0.1 0.2 0 0.3 0 0.2-0.1 0.3-0.3 0.5-0.6 0.9-0.2 0.5-0.4 1-0.2 0.5-0.4 1-0.1 0.5-0.2 1-0.1 0.2-0.1 0.3-0.1 0.2-0.3 0.3-0.1 0.1-0.3 0.1-0.1 0.1-0.3 0.1h-1.2v2h4.1q0-0.1-0.1-0.2 0-0.2 0-0.3 0-0.1 0-0.2 0-0.2 0-0.3c0-2.1 0.8-4.2 2.3-5.7 1.5-1.5 3.6-2.3 5.7-2.3 2.1 0 4.2 0.8 5.7 2.3 1.5 1.5 2.3 3.6 2.3 5.7q0 0.1 0 0.3 0 0.1 0 0.2 0 0.1 0 0.3-0.1 0.1-0.1 0.2z"/>
	<path class="s0" d="m32 34q-1.2 0-2.3 0.5-1.1 0.4-1.9 1.3-0.9 0.8-1.3 1.9-0.5 1.1-0.5 2.3 0 0.1 0 0.3 0 0.1 0 0.2 0 0.1 0.1 0.3 0 0.1 0 0.2h11.8q0-0.1 0-0.2 0.1-0.2 0.1-0.3 0-0.1 0-0.2 0-0.2 0-0.3 0-1.2-0.5-2.3-0.4-1.1-1.3-1.9-0.8-0.9-1.9-1.3-1.1-0.5-2.3-0.5z"/>
	<path class="s0" d="m48 17h-32v1.4q1.5 0.3 3 0.6 1.5 0.2 3.1 0.4 1.5 0.2 3 0.3 1.5 0.2 3.1 0.2-0.1 0.1-0.1 0.3 0 0.1-0.1 0.3 0 0.1 0 0.2 0 0.2 0 0.3 0 0.1 0 0.2 0 0.1 0 0.3 0 0.1 0.1 0.2 0 0.1 0 0.2-1.5 0-3-0.2-1.6-0.1-3.1-0.3-1.5-0.1-3-0.4-1.5-0.2-3-0.5v20.5h2v-3q0-0.2 0.1-0.4 0.1-0.2 0.2-0.3 0.1-0.1 0.3-0.2 0.2-0.1 0.4-0.1h1.4q0.1-0.4 0.2-0.8 0.2-0.4 0.3-0.8 0.2-0.4 0.4-0.8 0.2-0.3 0.4-0.7l-1-1q-0.2-0.1-0.2-0.3-0.1-0.2-0.1-0.4 0-0.2 0.1-0.4 0-0.1 0.2-0.3l2.8-2.8q0.2-0.2 0.3-0.2 0.2-0.1 0.4-0.1 0.2 0 0.4 0.1 0.2 0 0.3 0.2l1 1q0.4-0.2 0.7-0.4 0.4-0.2 0.8-0.4 0.4-0.1 0.8-0.3 0.4-0.1 0.8-0.2v-1.4q0-0.2 0.1-0.4 0.1-0.2 0.2-0.3 0.1-0.1 0.3-0.2 0.2-0.1 0.4-0.1h4q0.2 0 0.4 0.1 0.2 0.1 0.3 0.2 0.1 0.1 0.2 0.3 0.1 0.2 0.1 0.4v1.4q0.4 0.1 0.8 0.2 0.4 0.2 0.8 0.3 0.4 0.2 0.8 0.4 0.3 0.2 0.7 0.4l1-1q0.1-0.1 0.3-0.2 0.2-0.1 0.4-0.1 0.2 0 0.4 0.1 0.1 0.1 0.3 0.2l2.8 2.8q0.2 0.2 0.2 0.3 0.1 0.2 0.1 0.4 0 0.2-0.1 0.4 0 0.2-0.2 0.3l-1 1q0.2 0.4 0.4 0.7 0.2 0.4 0.4 0.8 0.1 0.4 0.3 0.8 0.1 0.4 0.2 0.8h1.4q0.2 0 0.4 0.1 0.2 0.1 0.3 0.2 0.1 0.1 0.2 0.3 0.1 0.2 0.1 0.4v3h2v-20.5q-1.5 0.3-3 0.5-1.5 0.3-3 0.4-1.5 0.2-3.1 0.3-1.5 0.2-3 0.2 0-0.2 0.1-0.5 0-0.2 0-0.5 0-0.2-0.1-0.5 0-0.2-0.1-0.5 1.6 0 3.1-0.2 1.5-0.1 3-0.3 1.6-0.2 3.1-0.4 1.5-0.3 3-0.6zm-24 9h-6v-2h6zm8-3c-0.8 0-1.5-0.5-1.8-1.2-0.4-0.8-0.2-1.6 0.4-2.2 0.6-0.6 1.4-0.7 2.2-0.4 0.7 0.3 1.2 1 1.2 1.8q0 0.4-0.2 0.8-0.1 0.4-0.4 0.6-0.3 0.3-0.6 0.5-0.4 0.1-0.8 0.1zm8 1h6v2h-6z"/>
	<path class="s0" d="m50 41h2v-21.6q-1 0.3-2 0.6z"/>
	<path class="s0" d="m14 41v-21q-1-0.3-2-0.6v21.6z"/>
	<path class="s0" d="m12 17.3q0.9 0.3 2 0.6v-1.9q0-0.2 0.1-0.4 0.1-0.2 0.2-0.3 0.1-0.1 0.3-0.2 0.2-0.1 0.4-0.1h34q0.2 0 0.4 0.1 0.2 0.1 0.3 0.2 0.1 0.1 0.2 0.3 0.1 0.2 0.1 0.4v1.9q1.1-0.3 2-0.6v-3.3q0-0.2-0.1-0.4-0.1-0.2-0.2-0.3-0.1-0.1-0.3-0.2-0.2-0.1-0.4-0.1h-38q-0.2 0-0.4 0.1-0.2 0.1-0.3 0.2-0.1 0.1-0.2 0.3-0.1 0.2-0.1 0.4"/>
	<path class="s0" d="m11.6 43l-7.9 14h56.6l-7.9-14zm43.3 11.5q-0.1 0.1-0.2 0.2-0.1 0.1-0.2 0.2-0.1 0-0.2 0.1-0.1 0-0.3 0h-44q-0.2 0-0.5-0.1-0.2-0.2-0.3-0.4-0.2-0.2-0.2-0.5 0-0.2 0.1-0.4l4-8q0.1-0.2 0.2-0.3 0.1-0.1 0.2-0.2 0.1 0 0.3-0.1 0.1 0 0.2 0h36q0.2 0 0.3 0 0.1 0.1 0.3 0.1 0.1 0.1 0.2 0.2 0.1 0.1 0.1 0.3l4 8q0.1 0.1 0.1 0.2 0 0.1 0 0.2 0 0.2 0 0.3-0.1 0.1-0.1 0.2z"/>
	<path fill-rule="evenodd" class="s0" d="m6.4 61h51.2l2-2h-55.2l2 2z"/>
	<path fill-rule="evenodd" class="s0" d="m14.6 47l-3 6h40.8l-3-6h-34.8z"/>
	<path class="s0" d="m32 7c0.8 0 1.5-0.5 1.8-1.2 0.4-0.8 0.2-1.6-0.4-2.2-0.6-0.6-1.4-0.8-2.2-0.4-0.7 0.3-1.2 1-1.2 1.8q0 0.4 0.2 0.8 0.1 0.3 0.4 0.6 0.3 0.3 0.6 0.4 0.4 0.2 0.8 0.2z"/>
	<path class="s0" d="m59 11c-0.8 0-1.5 0.5-1.8 1.2-0.4 0.8-0.2 1.6 0.4 2.2 0.6 0.6 1.4 0.8 2.2 0.4 0.7-0.3 1.2-1 1.2-1.8q0-0.4-0.2-0.8-0.1-0.3-0.4-0.6-0.3-0.3-0.6-0.4-0.4-0.2-0.8-0.2z"/>
	<path class="s0" d="m7 13c0-0.8-0.5-1.5-1.2-1.8-0.8-0.4-1.6-0.2-2.2 0.4-0.6 0.6-0.8 1.4-0.4 2.2 0.3 0.7 1 1.2 1.8 1.2q0.4 0 0.8-0.2 0.3-0.1 0.6-0.4 0.3-0.3 0.4-0.6 0.2-0.4 0.2-0.8z"/>
	<path class="s0" d="m55.9 10.5q0.2-0.2 0.4-0.4 0.2-0.2 0.4-0.4 0.2-0.1 0.5-0.2 0.2-0.2 0.5-0.3c-3.8-2.8-12-4.7-21.8-5.1q0 0.1 0 0.2 0.1 0.1 0.1 0.2 0 0.2 0 0.3 0 0.1 0 0.2 0 0.1 0 0.3 0 0.1 0 0.2-0.1 0.2-0.1 0.3 0 0.2-0.1 0.3c8.9 0.4 16.5 2 20.1 4.4z"/>
	<path class="s0" d="m8.1 10.5c3.6-2.4 11.2-4 20.1-4.4q-0.1-0.1-0.1-0.3 0-0.1-0.1-0.3 0-0.1 0-0.2 0-0.2 0-0.3 0-0.1 0-0.2 0-0.1 0-0.3 0-0.1 0.1-0.2 0-0.1 0-0.2c-9.8 0.4-18 2.3-21.8 5.1q0.3 0.1 0.5 0.3 0.3 0.1 0.5 0.2 0.2 0.2 0.4 0.4 0.2 0.2 0.4 0.4z"/>
	<path class="s0" d="m6.3 16.8q0.4 0.3 0.9 0.5 0.4 0.3 0.9 0.6 0.5 0.2 0.9 0.4 0.5 0.2 1 0.4v-2.1q-0.3-0.2-0.5-0.3-0.2-0.1-0.5-0.2-0.2-0.1-0.5-0.3-0.2-0.1-0.4-0.3-0.2 0.2-0.4 0.4-0.2 0.2-0.4 0.4-0.2 0.1-0.5 0.2-0.2 0.2-0.5 0.3z"/>
	<path class="s0" d="m54 16.6v2.1q0.5-0.2 1-0.4 0.4-0.2 0.9-0.4 0.5-0.3 0.9-0.6 0.5-0.2 0.9-0.5-0.3-0.1-0.5-0.3-0.3-0.1-0.5-0.2-0.2-0.2-0.4-0.4-0.2-0.2-0.4-0.4-0.2 0.2-0.4 0.3-0.3 0.2-0.5 0.3-0.3 0.1-0.5 0.2-0.2 0.1-0.5 0.3z"/>
	<text id="from the Noun Project" style="transform: matrix(1,0,0,1,0,84)" >
		<tspan x="0" y="0" class="t1">from the Noun Project
</tspan>
	</text>
</svg>
