<?xml version="1.0" standalone="no"?><!DOCTYPE svg PUBLIC "-//W3C//DTD SVG 1.1//EN" "http://www.w3.org/Graphics/SVG/1.1/DTD/svg11.dtd"><svg t="1742193840770" class="icon" viewBox="0 0 1024 1024" version="1.1" xmlns="http://www.w3.org/2000/svg" p-id="12731" data-spm-anchor-id="a313x.search_index.0.i0.1ac23a81x2W89b" xmlns:xlink="http://www.w3.org/1999/xlink" width="200" height="200"><path d="M508.78770973 423.92922909l6.40129365 0 0 0.95122886-6.40129365 0 0-0.95122886Z" fill="#222222" p-id="12732"></path><path d="M437.28835129 794.50804451l3.67800775 1.31448946c-9.04191545-7.16157838-32.15550123-23.86106254-62.25718499-33.78434958-35.80905813-11.80944498-89.15938645-16.15342933-139.95175823 30.17736306-0.57749049 0.52975389-1.30401053 0.70672725-2.09922389 0.50646812-12.14592569-2.98059549-64.72665429-132.91359459-111.56624498-254.66392803-2.54398464 1.71733561-5.01694691 3.66287189-7.60051826 5.70737436-4.54773646 3.59301461-9.48085419 7.46545949-15.54333923 10.53454109 58.54308352 146.32394525 117.2806053 289.49614365 125.88358087 297.81037397C281.3287003 738.69756075 353.61512221 764.55888327 437.28835129 794.50804451z" fill="#222222" p-id="12733"></path><path d="M787.3441371 791.0628955c-0.80103538 0.1979301-1.52406243 0.02095787-2.10038784-0.50879715-50.81216455-46.34709333-104.18810653-42.00310784-140.01230165-30.20297785-29.95149027 9.86972957-52.96028899 26.42833294-62.07788374 33.62717013l0.33880975-0.12341476c77.96236061-28.61604409 158.57116501-58.20776675 212.67479097 56.45200954 8.35847395-8.07671467 64.01527011-143.39225031 120.84916906-285.24530234-0.63686883-0.29456611-1.25278094-0.55769771-1.81630066-0.7078912-9.58913422-2.58357021-16.48408917-7.3292379-22.30672838-12.26002659C847.65927765 669.03895267 798.97078784 788.20804381 787.3441371 791.0628955z" fill="#222222" p-id="12734"></path><path d="M504.91526485 425.83168797l-0.28525226-0.32833082c-21.41487901-24.77619883-215.71942286-240.58294386-440.1070228-189.52627768-1.57645597 2.44269056 10.00711623 26.63324899 22.26248591 48.76649813l38.89793365-1.09909447-20.12251136-35.38409131 1.35291108-0.22005191c130.62924743-21.1109979 348.98579911 139.46741191 391.42784682 171.87323563l-1.04204402 1.48098275c1.18175971 0.67645554 2.34023253 1.35174599 3.46727083 2.02238066l1.87567901 1.11539428-2.09223794 0.6159121c-0.69857735 0.20608-1.44023325 1.22600221-1.44023324 2.71164302l11.03868131 362.44388523c0 1.65912007 0.9139712 2.87348053 1.73130638 2.87348053l1.990945 0c0.81733518 0 1.73014243-1.21435933 1.73014243-2.84320881l11.03868132-362.09459655c0-1.38201771-0.72652003-2.40659797-1.7278134-2.40659798l-4.4441145 0 2.88745131-1.76274318c48.92833565-29.87464704 148.67698574-64.1829285 254.12020224-87.4071222 84.65007161-18.64618553 181.62071438-31.26830763 199.89548943-10.76740096l0.38072433 0.42380288-0.19443712 0.53441194c-2.1469605 5.87270371-19.4413989 53.17102592-42.86585059 115.50389021 9.10827975 2.28900409 19.03622371 5.22884893 27.7824091 8.56804693 24.3279451-61.4095781 46.37037909-117.54257181 61.93467506-157.41967701-240.8239525-24.39314546-439.86484907 90.25266005-495.20845028 126.02446051l-1.09443754-1.5554981c59.49547747-45.44010695 263.34724096-192.12498375 388.9804982-171.8185142l1.35407502 0.22005191-20.11901838 35.33751865 38.89560462 1.01293625c12.25071275-22.04709091 23.83544775-46.15032718 22.16584875-48.65589021-223.57142869-50.82147954-418.56290702 166.48604217-440.05928619 191.43339236l-0.28525226 0.3294959-1.74644224 0 0-0.95122888-2.10038784 0-6.40129366 0-2.08758101 0 0 0.95122888L504.91526485 425.83401586z" fill="#222222" p-id="12735"></path><path d="M46.44614485 328.32663438l-0.19560106-0.53441195 0.37839644-0.42496796c18.19560277-20.40427065 115.24541667-8.02781411 200.0072613 10.35756886 101.86068082 22.09482752 198.58798592 54.32018603 249.25344882 82.87102862-57.31242439-36.79638073-255.67220736-149.63636451-496.2982309-125.26417579 14.51643107 37.18991303 34.6703781 88.52135253 57.05395086 145.08397113 9.80918613-2.53699869 20.29366272-4.52328675 29.17606969-5.83544718C64.18418005 376.86260167 48.48366137 333.90593593 46.44614485 328.32663438z" fill="#222222" p-id="12736"></path><path d="M27.22596181 463.3103451c-0.82548509 4.87723235 1.92457955 9.00465778 3.63609316 11.03169536 4.15653319 4.9203109 9.79405027 6.87399822 11.62897863 5.7178533 15.68887581-9.84993565 40.72471211-18.46804821 74.40660366-25.60866987 4.05174727-0.85924978 15.38150173-4.49883591 14.34644367-9.78822826-1.3657179-6.92522667-11.9037531-8.38059577-20.50439965-8.38059577-2.75705059 0-5.15084174 0.15252253-6.58176 0.24217372-0.55420473 0.03492864-0.98382962 0.06170738-1.26209593 0.07102237-12.72690915 0.43893874-47.01772686 6.07412679-64.84308423 13.96455538C33.62725661 452.52198741 28.05610382 458.39352718 27.22596181 463.3103451z" fill="#222222" p-id="12737"></path><path d="M35.75675221 498.67580757c2.09573091 7.3711525 5.95769799 11.10853859 11.47994909 11.1085386 3.85265209 0 7.16623645-1.82910749 8.08952149-2.39029817l0.84993593-0.51927609c7.67619755-4.70142293 31.03894187-19.00828103 67.15071715-23.18693604 16.05213639-1.85705017 34.83570745-9.85925063 34.08357376-17.0126791-0.25032363-2.41474787-1.00827933-9.75562866-16.50737493-9.75562866-8.15821597 0-17.67749177 1.93040157-25.91138588 3.81772344-19.63350699 4.51397177-52.49224249 14.58628835-70.11384775 22.38706575C40.81794275 484.91966123 33.73320647 491.52936391 35.75675221 498.67580757z" fill="#222222" p-id="12738"></path><path d="M133.46672071 488.0260005c-0.40866702 0.05122845-0.76028473 0.09430813-1.04204402 0.11992291-16.3723173 1.52871936-46.51125874 9.24333853-73.98512867 22.56753096-4.26597717 2.0736091-9.06287218 7.42587392-9.36908231 12.45795669-0.34463175 5.72949618 1.85239325 9.34346752 3.75718002 11.36584817 2.87580843 3.05743872 6.47697294 4.14489031 8.88822897 4.14489032 0.77774962 0 1.47166891-0.10711495 2.06313131-0.31552398 11.7081509-4.13324743 20.06313187-8.86960014 28.14333952-13.4511013 7.4293669-4.21125575 15.11254926-8.56688299 25.1173376-12.22044104 0.35743858-0.13040071 1.26325987-0.37723136 2.5672704-0.72652003 26.15705259-6.98926307 29.4461861-12.35899165 29.07943367-14.93790606-0.9058213-6.36520107-4.40452779-9.32949675-11.00608057-9.32949675C136.0433061 487.70116267 134.5541723 487.88861383 133.46672071 488.0260005z" fill="#222222" p-id="12739"></path><path d="M115.22105344 520.0371291l-0.51229013 0.18279424c-11.86300245 4.17632597-19.05950947 8.76830606-33.39663929 17.91500743-2.48111331 1.58344078-5.17179847 3.29961245-8.13260117 5.17179848-2.05614535 1.29586062-3.25304093 2.71280697-3.56041387 4.21358364-0.29689515 1.44954709 0.20724509 3.13195406 1.49611861 5.00414009 3.33104811 4.82483883 5.90646841 5.38486443 7.55278166 5.38486443 0 0 0 0 0.00116394 0 1.71384263 0 3.46843477-0.71022023 5.16481252-1.39366173 1.24579613-0.50414023 2.53350571-1.02457913 3.83169536-1.27490275 12.1517477-2.35071147 19.93738809-8.50633955 27.46804906-14.46054458 3.41953422-2.70116409 6.6481243-5.25562766 10.19806038-7.39793123 0.21539499-0.13040071 0.49482525-0.28874525 0.82664903-0.47852544 2.47412736-1.41228942 9.04657237-5.16131954 9.93143694-9.77192846 0.3539456-1.84657237-0.23285874-3.69663659-1.79417885-5.65381689-0.54139677-0.67761949-1.88382891-1.05252295-3.78163086-1.05252295C125.25960533 516.42315662 117.70216562 519.1417856 115.22105344 520.0371291z" fill="#222222" p-id="12740"></path><path d="M908.32952889 441.08977379c-2.30181091-0.31552398-6.57826702-0.90116437-11.2540763-0.90116437-6.58525298 0-14.77141163 1.22600221-16.36766038 7.05912036-1.41228942 5.19392029 9.62406286 9.64502073 13.60362382 10.79417969 33.07645838 9.55886251 57.42303232 19.9595099 72.36443023 30.91436203 0.39935317 0.29340217 1.01759431 0.44941767 1.78369991 0.44941767 2.69301419 0 7.23842275-2.00258787 10.71384348-5.82846122 2.86882247-3.15407474 4.26481323-6.78318307 3.93531734-10.21785316-0.47386851-4.9680475-5.60491634-11.22729757-9.87671438-13.50465877-17.21293824-9.15950933-51.00194475-17.25252381-63.6648175-18.60776391C909.29123669 441.21901056 908.87092565 441.16312519 908.32952889 441.08977379z" fill="#222222" p-id="12741"></path><path d="M964.07364722 491.84372395c-17.00452921-9.04773632-49.0517504-21.46610745-68.31268409-27.39004075-9.34812445-2.86765853-20.06778994-5.79935346-28.70918713-5.79935346-11.20168277 0-13.37309298 4.93777579-14.03324871 8.65187613-1.26093198 7.08473515 16.89508523 16.42471083 32.7690843 19.43441294 35.68797241 6.76804722 57.95977216 22.71888953 65.27736604 27.96054528l0.82897807 0.59262634c0.99197952 0.70439822 4.54773646 3.00155221 8.7368704 3.00155222 5.08680533 0 8.92897849-3.46028487 11.41474873-10.2842186C974.58257465 501.03350499 967.99382869 493.92781198 964.07364722 491.84372395z" fill="#222222" p-id="12742"></path><path d="M948.55126585 518.38150087c-26.44696178-15.28020878-55.95019833-25.14993721-72.16882916-27.85226638-0.27360939-0.04540757-0.61824114-0.11410091-1.01526528-0.19443712-1.35407502-0.27011641-3.40090539-0.68227641-5.57697365-0.68227641-5.65148786 0-9.00582173 2.80012914-10.25860381 8.55989703-0.55303965 2.54747762 2.34139762 8.14424405 27.93376655 17.00220018 1.27024583 0.43893874 2.15394531 0.75096974 2.49741312 0.9034934 9.71720704 4.3684352 17.06390869 9.26895331 24.17076565 14.00646998 7.72859107 5.15316963 15.71914752 10.47981966 27.09896761 15.45136014 0.72768398 0.31552398 1.64980622 0.48318237 2.66856448 0.48318236 5.36623559 0 12.97606883-4.52212167 13.09482667-14.57464547C957.05760541 526.44424477 952.66122752 520.75899221 948.55126585 518.38150087z" fill="#222222" p-id="12743"></path><path d="M891.74414563 523.80478805l-0.49948216-0.22121586c-7.08706418-3.14941781-12.43699997-4.74566656-15.90310571-4.74566656-0.99663645 0-2.31345379 0.14087965-2.93169493 0.81151318-1.69987072 1.84075037-2.42056989 3.64075008-2.20168192 5.50595129 0.54838272 4.65950834 6.83208363 8.87425707 9.1990949 10.46002688 0.31552398 0.21306595 0.58564039 0.39353117 0.78939249 0.53790379 3.38926251 2.39495509 6.42458055 5.1741275 9.63803477 8.1197932 7.08240725 6.48163101 14.40233017 13.18447673 26.35148971 16.40258902 1.27723179 0.34346667 2.52535581 0.95705088 3.73273031 1.54967722 1.78137088 0.87554958 3.62561536 1.77904299 5.49430841 1.77904299 2.41824085 0 4.86675342-1.58227683 7.48176043-4.84113863 1.41927538-1.77438606 2.04217344-3.41720633 1.8512293-4.88305323-0.20025913-1.51707648-1.28887467-3.01785315-3.24721892-4.46041429-2.80595115-2.07011613-5.35459271-3.97024597-7.70530418-5.72134628C910.14000754 533.93299001 903.28696718 528.82988487 891.74414563 523.80478805z" fill="#222222" p-id="12744"></path></svg>